mastitorrents.com
  
http://mastitorrents.com/forums/index.php







----------------------------------------------------------------------------------------------------
----------------------------------------------------------------------------------------------------

LIKE US @ FACEBOOK


1.  http://urlgator.com/efyQx   [MastiTorrentsReleasers]

2.  http://urlgator.com/FG4tl   [MastiTorrents]


[OR]



Search for "MastiTorrentsReleasers" and "MastiTorrents" 



We are waiting for you!!!



----------------------------------------------------------------------------------------------------
----------------------------------------------------------------------------------------------------





****************************************************************************************************
****************************************************************************************************





   8b    d8    db    .dP"Y8 888888 88 888888  dP"Yb  88""Yb 88""Yb 888888 88b 88 888888 .dP"Y8 
   88b  d88   dPYb   `Ybo."   88   88   88   dP   Yb 88__dP 88__dP 88__   88Yb88   88   `Ybo." 
   88YbdP88  dP__Yb  o.`Y8b   88   88   88   Yb   dP 88"Yb  88"Yb  88""   88 Y88   88   o.`Y8b 
   88 YY 88 dP""""Yb 8bodP'   88   88   88    YbodP  88  Yb 88  Yb 888888 88  Y8   88   8bodP' 




****************************************************************************************************
****************************************************************************************************




====================================================================================================

                           MASTI TORRENTS RELEASERS [ MTR ]

                                Where Quality Matters!

====================================================================================================









description:


7aum Arivu (Tamil: à®à®´à®¾à®®à¯ à®…à®±à®¿à®µà¯; English: The Seventh Sense) is a 2011 Tamil science fiction thriller film written and directed by A. R. Murugadoss. Starring Suriya, in double roles, and Shruti Haasan, the film began production in May 2010. The story is said to revolve around a "super machine", which is brought to India.[2] The film, produced by Udhayanidhi Stalin on a budget of 84 crore (US$18.73 million),[1] released on 26 October 2011. It is also dubbed and released in Telugu and Hindi.[3]

Plot

A genetic engineering student tries to bring back the skills of a legend of the past in his descent and use his skills to save from a deadly Virus attack.,  


Plot Summary 

BodhiDharma - Known to be the " The Founder of martial arts in China " 1600 years ago travels to china from South India after becoming a monk and saves Chinese people from a deadly virus and teaches them martial arts....after 1600 years at present day...China decides to use the same virus to launch a BIO WAR known as OPERATION RED on India keeping in mind that they got Bodhidharma's antidote for this Virus but India forgot about him totally and they don't have any idea about this virus.On other hand Subha (Shruthi Hassan) a genetic engineering student does research on Bodhi Darma and finds his DNA match on present days Aravind (Suriya) working on a Circus...And she tries to bring back the talent of BodhiDharma in Surya(Aravind).So Chinese government sends Dong lee(Johnny Nguyen) to Kill her and start the biological war.Now what happens??? at last does Bodhi Dharma's talent are brought back in Suriya and are they protecting India from this Deadly virus attack???? Is the rest of the story with some good visual effects ,Music Direction and screen presentation.

The music score by Harris Jayaraj is exceptional.

The way the 6th century Chinese village is been brought out in the screen is awesome.

The Visual effects add the perfect flavour to the movie.

Hats Off for the efforts made by Suriya , A.R. Murugadoss and the rest of the crew to put forth a movie making us remember the forgotten legend BodhiDharma.

Overall the movie is a mix up various movies and games we have already seen and played having same biological war plot... If its not for the BodhiDharma's character then the rest of the movie would be too boring with lack of proper twists and suspense which the movie promises but has not delivered it...

"AN OLD WINE WITH ADDED NEW COLOUR AND FLAVOUR WRAPPED IN A NEW CATCHY COVER" - 7am Arivu


Cast

Suriya as Bodhidharma and Aravind
Shruti Haasan as Shuba Srinivasan
Johnny Tri Nguyen as Dong Lee
Avinash as Bodhidharma's father
Guinnes Pakru
Ashwin Kakumanu
Dhanya Balakrishna


 
http://www.imdb.com/title/tt1725795/



Media Info :

General
Complete name                    : D:\7aum Arivu (Tamil 2011) TCRip x264 AAC TDM -=MTR=- Mastitorrents.mp4
Format                           : MPEG-4
Format profile                   : Base Media / Version 2
Codec ID                         : mp42
File size                        : 705 MiB
Duration                         : 2h 40mn
Overall bit rate                 : 615 Kbps
Encoded date                     : UTC 2011-10-26 21:15:04
Tagged date                      : UTC 2011-10-26 21:27:53
Writing application              : HandBrake 0.9.5 2011010300

Video
ID                               : 1
Format                           : AVC
Format/Info                      : Advanced Video Codec
Format profile                   : Main@L2.1
Format settings, CABAC           : Yes
Format settings, ReFrames        : 4 frames
Format settings, GOP             : M=1, N=60
Codec ID                         : avc1
Codec ID/Info                    : Advanced Video Coding
Duration                         : 2h 40mn
Bit rate mode                    : Variable
Bit rate                         : 546 Kbps
Width                            : 608 pixels
Height                           : 256 pixels
Display aspect ratio             : 2.2:1
Frame rate mode                  : Constant
Frame rate                       : 29.970 fps
Color space                      : YUV
Chroma subsampling               : 4:2:0
Bit depth                        : 8 bits
Scan type                        : Progressive
Bits/(Pixel*Frame)               : 0.117
Stream size                      : 626 MiB (89%)
Writing library                  : x264 core 112
Encoding settings                : cabac=1 / ref=2 / deblock=1:0:0 / analyse=0x1:0x111 / me=hex / subme=6 / psy=1 / psy_rd=1.00:0.00 / mixed_ref=0 / me_range=16 / chroma_me=1 / trellis=0 / 8x8dct=0 / cqm=0 / deadzone=21,11 / fast_pskip=1 / chroma_qp_offset=-2 / threads=12 / sliced_threads=0 / nr=0 / decimate=1 / interlaced=0 / constrained_intra=0 / bframes=2 / b_pyramid=2 / b_adapt=1 / b_bias=0 / direct=1 / weightb=0 / open_gop=0 / weightp=2 / keyint=300 / keyint_min=29 / scenecut=40 / intra_refresh=0 / rc_lookahead=40 / rc=2pass / mbtree=1 / bitrate=546 / ratetol=1.0 / qcomp=0.60 / qpmin=3 / qpmax=51 / qpstep=4 / cplxblur=20.0 / qblur=0.5 / ip_ratio=1.40 / aq=1:1.00
Encoded date                     : UTC 2011-10-26 21:15:04
Tagged date                      : UTC 2011-10-26 21:27:53
Material_Duration                : 9615039
Material_Duration_LastFrame      : -0
Material_StreamSize              : 656097021
Material_FrameCount              : 288163
Color primaries                  : BT.601-6 525, BT.1358 525, BT.1700 NTSC, SMPTE 170M
Transfer characteristics         : BT.709-5, BT.1361
Matrix coefficients              : BT.601-6 525, BT.1358 525, BT.1700 NTSC, SMPTE 170M

Audio
ID                               : 2
Format                           : AAC
Format/Info                      : Advanced Audio Codec
Format profile                   : LC
Codec ID                         : 40
Duration                         : 2h 40mn
Bit rate mode                    : Variable
Bit rate                         : 64.2 Kbps
Maximum bit rate                 : 83.2 Kbps
Channel(s)                       : 2 channels
Channel positions                : Front: L R
Sampling rate                    : 48.0 KHz
Compression mode                 : Lossy
Stream size                      : 73.6 MiB (10%)





Credits : Thambi




Screens/Covers:
 
http://picturestack.com/717/127/msv7AMARIVUTDLQv.png
 
http://picturestack.com/717/127/oYD7AMARIVUTD1Lk.png
 
http://picturestack.com/717/127/f607AMARIVUTD5WM.png
 
http://picturestack.com/717/127/9Uq7AMARIVUTD7sa.png
 
http://picturestack.com/717/127/cWt7AMARIVUTD8qu.png
 
http://picturestack.com/717/127/e6v7AMARIVUTDyOi.png
 
http://picturestack.com/717/127/jaa7AMARIVUTDIZo.png

 
http://picturestack.com/717/127/ufU7AMARIVUTDIRl.png
 
http://picturestack.com/717/128/4ku7AMARIVUTDNgn.png











****check out my other releases****

 
http://thepiratebay.org/user/tdkdemon/










****************************************************************************************************
****************************************************************************************************





    <<<<<<<SUPERFAST RELEASES BROUGHT TO YOU BY>>>>>>

          


                                  Masti Torrents Releasers [ MTR ]





            8888b.  888888 8b    d8  dP"Yb  88b 88     88888 8b    d8 888888 88""Yb 88888 
             8I  Yb 88__   88b  d88 dP   Yb 88Yb88     88    88b  d88   88   88__dP    88 
             8I  dY 88""   88YbdP88 Yb   dP 88 Y88     88    88YbdP88   88   88"Yb     88 
            8888Y"  888888 88 YY 88  YbodP  88  Y8     88888 88 YY 88   88   88  Yb 88888 





****************************************************************************************************
****************************************************************************************************
